<svg width="11" height="16" viewBox="0 0 11 16" fill="none" xmlns="http://www.w3.org/2000/svg">
<path d="M10.3125 5.3125C10.3125 2.6525 8.16 0.5 5.5 0.5C2.84 0.5 0.6875 2.6525 0.6875 5.3125C0.6875 7.675 2.385 9.62625 4.625 10.0375V11.875H2.875V13.625H4.625V15.375H6.375V13.625H8.125V11.875H6.375V10.0375C8.615 9.62625 10.3125 7.675 10.3125 5.3125ZM2.4375 5.3125C2.4375 3.62375 3.81125 2.25 5.5 2.25C7.18875 2.25 8.5625 3.62375 8.5625 5.3125C8.5625 7.00125 7.18875 8.375 5.5 8.375C3.81125 8.375 2.4375 7.00125 2.4375 5.3125Z" fill="#267F53"/>
</svg>
