<svg width="31" height="31" viewBox="0 0 31 31" fill="none" xmlns="http://www.w3.org/2000/svg">
<path fill-rule="evenodd" clip-rule="evenodd" d="M0.0833436 13.9582C0.0835835 11.7419 0.614758 9.55785 1.6324 7.58895C2.65004 5.62005 4.12454 3.92358 5.93246 2.64156C7.74038 1.35953 9.82911 0.529262 12.0238 0.220245C14.2185 -0.0887721 16.4553 0.132459 18.5469 0.865417C20.6385 1.59838 22.5242 2.82173 24.0459 4.43308C25.5676 6.04443 26.6812 7.99687 27.2935 10.127C27.9057 12.2571 27.9987 14.5028 27.5648 16.6763C27.1309 18.8497 26.1826 20.8876 24.7993 22.6193L30.465 28.2849C30.7458 28.5757 30.9012 28.9651 30.8977 29.3693C30.8942 29.7736 30.732 30.1602 30.4462 30.4461C30.1604 30.7319 29.7737 30.894 29.3695 30.8975C28.9652 30.9011 28.5758 30.7457 28.285 30.4648L22.6194 24.7992C20.578 26.4303 18.1176 27.4518 15.5212 27.7461C12.9249 28.0404 10.2982 27.5956 7.94352 26.4629C5.58883 25.3302 3.60186 23.5556 2.2113 21.3434C0.820735 19.1311 0.0831175 16.5712 0.0833436 13.9582ZM13.9583 3.16655C12.5412 3.16655 11.1379 3.44568 9.82855 3.98802C8.51925 4.53035 7.32958 5.32526 6.32748 6.32736C5.32538 7.32945 4.53048 8.51912 3.98814 9.82842C3.44581 11.1377 3.16668 12.541 3.16668 13.9582C3.16668 15.3754 3.44581 16.7787 3.98814 18.088C4.53048 19.3973 5.32538 20.587 6.32748 21.5891C7.32958 22.5912 8.51925 23.3861 9.82855 23.9284C11.1379 24.4707 12.5412 24.7499 13.9583 24.7499C16.8205 24.7499 19.5654 23.6129 21.5892 21.5891C23.613 19.5652 24.75 16.8203 24.75 13.9582C24.75 11.0961 23.613 8.35119 21.5892 6.32736C19.5654 4.30353 16.8205 3.16655 13.9583 3.16655Z" fill="black"/>
</svg>
