<svg width="67" height="71" viewBox="0 0 67 71" fill="none" xmlns="http://www.w3.org/2000/svg">
<g clip-path="url(#clip0_401_144)">
<path d="M16.8759 25.7922C11.8995 29.2024 10.6901 35.9154 14.1745 40.7857C20.4839 49.6043 36.8686 50.3237 43.9368 48.259C48.3368 42.4648 53.25 27.1502 46.9406 18.3316C43.4561 13.4613 36.597 12.2776 31.6206 15.6878C28.5734 17.776 26.9378 21.1036 26.9291 24.4871C25.2695 23.8985 23.4894 23.7097 21.7395 23.9369C19.9896 24.1641 18.3213 24.8004 16.8759 25.7922Z" stroke="white" stroke-width="4" stroke-linecap="round" stroke-linejoin="round"/>
<path d="M34.4078 28.1149L32.4432 39.0193" stroke="white" stroke-width="4" stroke-linecap="round" stroke-linejoin="round"/>
<path d="M27.8546 32.6057L38.9964 34.5284" stroke="white" stroke-width="4" stroke-linecap="round" stroke-linejoin="round"/>
</g>
<path d="M30.3333 65.66L25.125 60.5627L30.3333 55.4654" stroke="white" stroke-width="4" stroke-linecap="round" stroke-linejoin="round"/>
<path d="M25.125 60.5627H33.4583C39.2115 60.5627 43.875 55.9986 43.875 50.3681V49.3486" stroke="white" stroke-width="4" stroke-linecap="round" stroke-linejoin="round"/>
<defs>
<clipPath id="clip0_401_144">
<rect width="47.6659" height="47.316" fill="white" transform="matrix(0.824894 -0.565288 0.581868 0.813283 0 27.799)"/>
</clipPath>
</defs>
</svg>
