<svg width="69" height="73" viewBox="0 0 69 73" fill="none" xmlns="http://www.w3.org/2000/svg">
<g clip-path="url(#clip0_401_143)">
<path d="M51.0118 26.0972C56.0491 29.5493 57.2733 36.3442 53.7462 41.2742C47.3597 50.2007 30.7745 50.9288 23.6197 48.839C19.1661 42.9738 14.1928 27.4719 20.5793 18.5454C24.1065 13.6155 31.0494 12.4173 36.0867 15.8693C39.1715 17.9833 40.8263 21.3509 40.8357 24.7761C44.1276 23.6132 47.927 23.9833 51.0118 26.0972Z" fill="#267F53" stroke="white" stroke-width="4" stroke-linecap="round" stroke-linejoin="round"/>
</g>
<path d="M37.6667 67.201L42.875 62.1037L37.6667 57.0064" stroke="white" stroke-width="4" stroke-linecap="round" stroke-linejoin="round"/>
<path d="M42.875 62.1038H34.5417C28.7885 62.1038 24.125 57.5396 24.125 51.9091V50.8896" stroke="white" stroke-width="4" stroke-linecap="round" stroke-linejoin="round"/>
<defs>
<clipPath id="clip0_401_143">
<rect width="48.2489" height="47.8948" fill="white" transform="matrix(-0.824894 -0.565288 -0.581868 0.813283 68.0941 28.1285)"/>
</clipPath>
</defs>
</svg>
