<svg width="16" height="16" viewBox="0 0 16 16" fill="none" xmlns="http://www.w3.org/2000/svg">
<path d="M5.70829 7.08333C7.47746 7.08333 8.91663 8.5225 8.91663 10.2917C8.91663 12.0608 7.47746 13.5 5.70829 13.5C3.93913 13.5 2.49996 12.0608 2.49996 10.2917C2.49996 8.5225 3.93913 7.08333 5.70829 7.08333ZM5.70829 5.25C2.92163 5.25 0.666626 7.505 0.666626 10.2917C0.666626 13.0783 2.92163 15.3333 5.70829 15.3333C8.49496 15.3333 10.75 13.0783 10.75 10.2917C10.75 9.22833 10.42 8.2475 9.86079 7.43167L13.5 3.80167V6.16667H15.3333V0.666667H9.83329V2.5H12.1983L8.55913 6.13917C7.75246 5.58 6.77163 5.25 5.70829 5.25Z" fill="#267F53"/>
</svg>
