<svg width="26" height="26" viewBox="0 0 26 26" fill="none" xmlns="http://www.w3.org/2000/svg">
<path d="M23.375 13.825C23.1746 13.5969 23.0641 13.3036 23.0641 13C23.0641 12.6964 23.1746 12.4031 23.375 12.175L24.975 10.375C25.1513 10.1783 25.2608 9.93087 25.2877 9.66813C25.3147 9.40538 25.2577 9.14085 25.125 8.91249L22.625 4.58749C22.4936 4.35939 22.2936 4.17859 22.0534 4.07085C21.8133 3.96311 21.5452 3.93394 21.2875 3.98749L18.9375 4.46249C18.6385 4.52428 18.3272 4.47448 18.0624 4.32249C17.7975 4.17051 17.5975 3.92684 17.5 3.63749L16.7375 1.34999C16.6536 1.10171 16.4939 0.886072 16.2808 0.733543C16.0677 0.581015 15.812 0.499315 15.55 0.499991H10.55C10.2774 0.485763 10.0077 0.561149 9.78195 0.714634C9.55624 0.868118 9.38697 1.09126 9.29999 1.34999L8.59999 3.63749C8.50249 3.92684 8.30246 4.17051 8.03763 4.32249C7.77281 4.47448 7.46151 4.52428 7.16249 4.46249L4.74999 3.98749C4.50568 3.95297 4.25662 3.99152 4.03418 4.09829C3.81174 4.20506 3.62587 4.37528 3.49999 4.58749L0.999992 8.91249C0.863942 9.1383 0.80277 9.40135 0.825221 9.66402C0.847671 9.92669 0.952595 10.1755 1.12499 10.375L2.71249 12.175C2.91289 12.4031 3.02341 12.6964 3.02341 13C3.02341 13.3036 2.91289 13.5969 2.71249 13.825L1.12499 15.625C0.952595 15.8244 0.847671 16.0733 0.825221 16.336C0.80277 16.5986 0.863942 16.8617 0.999992 17.0875L3.49999 21.4125C3.63136 21.6406 3.83139 21.8214 4.07156 21.9291C4.31172 22.0369 4.57977 22.066 4.83749 22.0125L7.18749 21.5375C7.48651 21.4757 7.79781 21.5255 8.06263 21.6775C8.32746 21.8295 8.52749 22.0731 8.62499 22.3625L9.38749 24.65C9.47447 24.9087 9.64374 25.1319 9.86945 25.2853C10.0952 25.4388 10.3649 25.5142 10.6375 25.5H15.6375C15.8995 25.5007 16.1552 25.419 16.3683 25.2664C16.5814 25.1139 16.7411 24.8983 16.825 24.65L17.5875 22.3625C17.685 22.0731 17.885 21.8295 18.1499 21.6775C18.4147 21.5255 18.726 21.4757 19.025 21.5375L21.375 22.0125C21.6327 22.066 21.9008 22.0369 22.1409 21.9291C22.3811 21.8214 22.5811 21.6406 22.7125 21.4125L25.2125 17.0875C25.3452 16.8591 25.4022 16.5946 25.3752 16.3319C25.3483 16.0691 25.2388 15.8217 25.0625 15.625L23.375 13.825ZM21.5125 15.5L22.5125 16.625L20.9125 19.4L19.4375 19.1C18.5372 18.916 17.6007 19.0689 16.8057 19.5297C16.0108 19.9906 15.4127 20.7273 15.125 21.6L14.65 23H11.45L11 21.575C10.7123 20.7023 10.1142 19.9656 9.31925 19.5047C8.52428 19.0439 7.58777 18.891 6.68749 19.075L5.21249 19.375L3.58749 16.6125L4.58749 15.4875C5.20244 14.8 5.54241 13.9099 5.54241 12.9875C5.54241 12.0651 5.20244 11.175 4.58749 10.4875L3.58749 9.36249L5.18749 6.61249L6.66249 6.91249C7.56277 7.09652 8.49928 6.94359 9.29425 6.48274C10.0892 6.02189 10.6873 5.28519 10.975 4.41249L11.45 2.99999H14.65L15.125 4.42499C15.4127 5.29769 16.0108 6.03439 16.8057 6.49524C17.6007 6.95609 18.5372 7.10902 19.4375 6.92499L20.9125 6.62499L22.5125 9.39999L21.5125 10.525C20.9044 11.2109 20.5687 12.0958 20.5687 13.0125C20.5687 13.9291 20.9044 14.814 21.5125 15.5ZM13.05 7.99999C12.0611 7.99999 11.0944 8.29324 10.2721 8.84264C9.44989 9.39205 8.80903 10.1729 8.43059 11.0866C8.05216 12.0002 7.95314 13.0055 8.14607 13.9754C8.33899 14.9453 8.8152 15.8363 9.51446 16.5355C10.2137 17.2348 11.1046 17.711 12.0745 17.9039C13.0444 18.0968 14.0498 17.9978 14.9634 17.6194C15.877 17.241 16.6579 16.6001 17.2073 15.7778C17.7567 14.9556 18.05 13.9889 18.05 13C18.05 11.6739 17.5232 10.4021 16.5855 9.46446C15.6478 8.52678 14.3761 7.99999 13.05 7.99999ZM13.05 15.5C12.5555 15.5 12.0722 15.3534 11.6611 15.0787C11.2499 14.804 10.9295 14.4135 10.7403 13.9567C10.5511 13.4999 10.5016 12.9972 10.598 12.5123C10.6945 12.0273 10.9326 11.5819 11.2822 11.2322C11.6319 10.8826 12.0773 10.6445 12.5623 10.548C13.0472 10.4516 13.5499 10.5011 14.0067 10.6903C14.4635 10.8795 14.854 11.1999 15.1287 11.6111C15.4034 12.0222 15.55 12.5055 15.55 13C15.55 13.663 15.2866 14.2989 14.8178 14.7678C14.3489 15.2366 13.713 15.5 13.05 15.5Z" fill="black"/>
</svg>
